<!--?xml version="1.0" encoding="iso-8859-1"?-->
<!-- Generator: Adobe Illustrator 22.1.0, SVG Export Plug-In . SVG Version: 6.00 Build 0)  -->
<svg version="1.1" id="_x34_" xmlns="http://www.w3.org/2000/svg" xmlns:xlink="http://www.w3.org/1999/xlink" x="0px" y="0px" viewBox="0 0 512 511.9" style="opacity: 1; width: 256px;" xml:space="preserve">
<style type="text/css">
	.st0{fill:#64AE35;}
	.st1{opacity:0.1;fill:#FFFFFF;}
	.st2{fill:#E1E19B;}
</style>
<g>
	<path class="st0" d="M489.3,323.6c-63.6,154.9-241.2,229.2-396,165.6C61.2,476,32.6,458,7.9,436.3c-10.3-9-10.5-25-0.8-34.6
		l9.6-9.6L396.3,12.4l5.4-5.4c9.6-9.6,25.6-9.4,34.5,0.8C509.9,91.8,534.5,213.5,489.3,323.6z"></path>
	<g>
		<path class="st1" d="M180.7,365.8c-12.5-5.1-26.9,1-32.1,13.7c-5.2,12.7,0.7,27.1,13.3,32.3c12.5,5.1,26.9-1,32.1-13.7
			C199.2,385.3,193.3,370.9,180.7,365.8z"></path>
		<path class="st1" d="M300.6,353c-12.5,5.3-18.5,19.9-13.3,32.5c5.2,12.6,19.5,18.5,32.1,13.2c12.5-5.3,18.5-19.9,13.3-32.5
			C327.5,353.5,313.1,347.6,300.6,353z"></path>
		<path class="st1" d="M409.2,244.8c-12.5-5.1-26.9,1-32.1,13.7c-5.2,12.7,0.7,27.1,13.3,32.3c12.5,5.1,26.9-1,32.1-13.7
			C427.7,264.4,421.7,249.9,409.2,244.8z"></path>
		<path class="st1" d="M397.6,150.8c12.5-5.3,18.5-19.9,13.3-32.5c-5.2-12.6-19.5-18.5-32.1-13.2c-12.5,5.3-18.5,19.9-13.3,32.5
			C370.7,150.3,385,156.2,397.6,150.8z"></path>
	</g>
	<path class="st2" d="M395.7,12.4L16,392.1c24.9,26.2,55.4,47.6,90.9,62.2c135.7,55.7,291.4-10.6,347.8-148.1
		C497.6,201.8,470.7,86.2,395.7,12.4z M204.3,398c-3.7,30.5-35.3,49.4-63.4,37.8l-25.7-10.5c-28.1-11.5-37.4-47.1-18.6-71.4L191,250
		c6.9-7.6,19.3-2.5,18.9,7.8L204.3,398z M318.5,423.7l-25.7,10.9c-28.2,12-59.7-6.3-63.3-36.8l-5.4-140.1
		c-0.4-10.2,12-15.5,18.9-8.1l94.2,102.3C356,376,346.7,411.7,318.5,423.7z M436.7,288.4l-10.7,26c-11.7,28.5-47,38.1-71,19.4
		l-102-94.4c-7.4-6.9-2.3-19.5,7.9-19.1l138.9,4.5C430,228.3,448.4,259.9,436.7,288.4z M399.8,199.4L260.9,206
		c-10.1,0.5-15.3-12-7.8-19l102.2-96c24-19.1,59.3-10,70.9,18.3l10.6,25.8C448.5,163.4,430.1,195.4,399.8,199.4z"></path>
</g>
</svg>
